<svg width="44" height="44" viewBox="0 0 44 44" fill="none" xmlns="http://www.w3.org/2000/svg">
<g clip-path="url(#clip0_104_6)">
<path d="M30.7542 9.28359L37.6444 16.0956C37.9347 16.3826 37.9347 16.8508 37.6444 17.1378L20.9611 33.6315L13.8722 34.4094C12.925 34.5151 12.1229 33.7221 12.2299 32.7857L13.0167 25.7773L29.7 9.28359C29.9903 8.99661 30.4639 8.99661 30.7542 9.28359ZM43.1292 7.55417L39.4014 3.86875C38.2403 2.72083 36.3535 2.72083 35.1847 3.86875L32.4806 6.54219C32.1903 6.82917 32.1903 7.2974 32.4806 7.58438L39.3708 14.3964C39.6611 14.6833 40.1347 14.6833 40.425 14.3964L43.1292 11.7229C44.2903 10.5674 44.2903 8.70208 43.1292 7.55417V7.55417ZM29.3333 29.1456V36.8336H4.88889V12.6669H22.4431C22.6875 12.6669 22.9167 12.5688 23.0924 12.4026L26.1479 9.38177C26.7285 8.80781 26.316 7.83359 25.4986 7.83359H3.66667C1.64236 7.83359 0 9.45729 0 11.4586V38.0419C0 40.0432 1.64236 41.6669 3.66667 41.6669H30.5556C32.5799 41.6669 34.2222 40.0432 34.2222 38.0419V26.1247C34.2222 25.3167 33.2368 24.9164 32.6562 25.4828L29.6007 28.5036C29.4326 28.6773 29.3333 28.9039 29.3333 29.1456Z" fill="#3B82F6"/>
</g>
<defs>
<clipPath id="clip0_104_6">
<rect width="44" height="38.6667" fill="white" transform="translate(0 3)"/>
</clipPath>
</defs>
</svg>
