<svg width="44" height="44" viewBox="0 0 44 44" fill="none" xmlns="http://www.w3.org/2000/svg">
<path d="M26.4001 8.7999H33.0001C34.3201 8.7999 35.2001 9.6799 35.2001 10.9999V13.1999H6.6001V10.9999C6.6001 9.6799 7.7001 8.7999 8.8001 8.7999H15.4001C15.8401 6.3799 18.2601 4.3999 20.9001 4.3999C23.5401 4.3999 25.9601 6.3799 26.4001 8.7999ZM17.6001 8.7999H24.2001C23.7601 7.4799 22.2201 6.5999 20.9001 6.5999C19.5801 6.5999 18.0401 7.4799 17.6001 8.7999ZM8.8001 15.3999H33.0001L31.0201 37.6199C31.0201 38.7199 29.9201 39.5999 28.8201 39.5999H12.9801C11.8801 39.5999 11.0001 38.7199 10.7801 37.6199L8.8001 15.3999Z" fill="#FF5656"/>
</svg>
